<?xml version="1.0" standalone="no"?>
<!DOCTYPE svg PUBLIC "-//W3C//DTD SVG 20010904//EN"
 "http://www.w3.org/TR/2001/REC-SVG-20010904/DTD/svg10.dtd">
<svg version="1.0" xmlns="http://www.w3.org/2000/svg"
 width="300.000000pt" height="191.000000pt" viewBox="0 0 300.000000 191.000000"
 preserveAspectRatio="xMidYMid meet">
<metadata>
Created by potrace 1.10, written by Peter Selinger 2001-2011
</metadata>
<g transform="translate(0.000000,191.000000) scale(0.050000,-0.050000)"
fill="#000000" stroke="none">
<path d="M1302 3785 c-54 -26 -102 -98 -102 -153 0 -17 -17 -23 -48 -17 -112
21 -221 -103 -208 -238 5 -60 13 -68 73 -73 75 -8 168 60 150 108 -11 28 36
88 68 88 49 0 83 -69 53 -109 -15 -21 -28 -32 -28 -24 0 9 -27 -1 -60 -20 -33
-20 -60 -43 -60 -51 0 -30 147 -16 184 17 61 56 146 -46 87 -104 -36 -37 -80
-37 -111 1 -37 44 -140 37 -194 -14 -35 -32 -73 -45 -141 -45 -72 -1 -96 -9
-101 -35 -8 -42 286 -28 337 16 53 46 123 -16 92 -82 -26 -55 -82 -67 -100
-20 -9 23 -48 30 -172 30 -162 0 -186 -12 -131 -67 17 -17 30 -38 30 -48 0
-21 88 -65 129 -65 16 0 55 -23 88 -51 33 -27 70 -48 83 -45 42 10 71 -56 41
-92 -42 -51 -98 -39 -113 23 -28 117 -125 165 -169 82 -18 -33 -17 -46 4 -59
20 -13 20 -17 2 -18 -39 0 -29 -76 15 -120 42 -42 138 -54 172 -20 13 13 20
-4 20 -53 0 -151 209 -228 319 -118 l49 49 0 650 c0 644 0 651 -43 673 -62 34
-150 35 -215 4z m-189 -824 c55 -43 187 -43 239 1 34 28 107 -25 100 -74 -9
-63 -49 -78 -110 -42 -32 19 -89 34 -127 34 -40 0 -88 17 -115 40 -25 22 -67
40 -92 40 -25 0 -51 9 -58 20 -23 37 113 21 163 -19z"/>
<path d="M1694 3791 c-44 -22 -44 -26 -49 -685 l-6 -663 53 -41 c134 -106 362
13 317 164 -11 36 -9 39 13 19 41 -40 127 -29 175 21 53 58 59 124 8 106 -32
-11 -31 -9 2 16 44 35 14 112 -45 112 -41 0 -108 -66 -115 -114 -8 -54 -44
-78 -83 -53 -60 37 -52 83 20 113 36 15 78 43 93 61 16 18 50 33 78 33 46 0
185 123 185 164 0 31 -301 18 -333 -14 -41 -42 -73 -38 -105 14 -38 60 43 135
96 89 52 -45 346 -60 338 -17 -5 25 -29 34 -92 36 -55 1 -104 16 -139 45 -65
52 -194 59 -213 12 -15 -41 -91 -30 -120 16 -17 27 -12 44 23 79 27 27 45 34
45 19 0 -14 9 -20 20 -13 11 7 20 3 20 -9 0 -12 41 -21 93 -21 100 0 85 68
-18 84 -92 14 -82 136 11 136 33 0 78 -47 70 -73 -26 -79 182 -173 212 -95 48
125 -69 301 -188 284 -40 -6 -60 -1 -60 17 0 128 -180 221 -306 158z m173
-237 c7 7 13 2 13 -11 0 -12 -13 -23 -30 -23 -16 0 -30 -9 -30 -20 0 -11 -9
-20 -20 -20 -22 0 -27 66 -7 86 7 8 24 5 37 -6 13 -11 30 -14 37 -6z m332
-122 c16 -20 16 -33 2 -41 -12 -8 -22 3 -23 23 -2 32 -4 32 -12 2 -5 -20 -20
-29 -38 -23 -22 9 -24 18 -6 39 29 35 47 35 77 0z m41 -452 c0 -11 -26 -20
-57 -20 -31 0 -73 -18 -93 -40 -23 -25 -62 -40 -105 -40 -38 0 -94 -15 -125
-33 -52 -31 -59 -31 -88 -2 -70 70 -8 161 78 115 73 -39 173 -37 228 4 51 38
162 49 162 16z"/>
<path d="M920 3230 l-47 -50 80 0 c60 0 92 13 127 50 l47 50 -80 0 c-60 0 -92
-13 -127 -50z"/>
<path d="M2120 3230 c47 -50 180 -73 180 -31 0 35 -89 81 -158 81 l-69 0 47
-50z"/>
<path d="M1372 2287 c-23 -59 15 -69 240 -63 203 6 218 9 218 46 0 57 -437 73
-458 17z"/>
<path d="M3504 1520 l2 -720 147 0 147 0 0 176 c0 167 3 179 56 230 75 72 65
83 184 -176 l106 -230 159 0 c87 0 155 7 152 15 -4 8 -80 159 -170 335 l-163
320 177 190 176 190 -171 6 -170 6 -67 -76 c-36 -42 -110 -132 -163 -200 -53
-68 -100 -124 -106 -125 -5 -1 -7 174 -3 389 l7 390 -151 0 -151 0 2 -720z"/>
<path d="M1366 2167 c-20 -51 18 -61 238 -59 211 2 226 5 226 42 0 49 -446 65
-464 17z"/>
<path d="M1464 2044 c16 -82 182 -101 259 -31 55 50 29 63 -124 63 -120 0
-140 -4 -135 -32z"/>
<path d="M2245 1906 c-25 -5 -77 -38 -115 -75 l-70 -66 0 58 c0 57 0 57 -130
57 l-130 0 0 -270 0 -270 138 0 137 0 14 85 c22 142 87 195 240 195 l91 0 0
150 0 150 -65 -3 c-36 -1 -85 -6 -110 -11z"/>
<path d="M5560 1581 c0 -263 6 -328 44 -445 l44 -136 92 0 92 0 44 136 c38
117 44 182 44 445 l0 309 -180 0 -180 0 0 -309z"/>
<path d="M363 1858 c-380 -115 -420 -846 -57 -1027 274 -137 643 -12 723 244
24 79 -244 67 -326 -15 -127 -127 -363 -23 -363 159 0 40 10 41 362 41 l362 0
-13 105 c-50 415 -315 606 -688 493z m329 -260 c25 -23 55 -69 66 -100 l20
-58 -219 0 c-120 0 -219 3 -219 7 0 169 228 267 352 151z"/>
<path d="M2730 1848 c-366 -134 -410 -814 -65 -1008 271 -153 755 20 755 269
0 48 -281 6 -337 -49 -131 -131 -306 -58 -372 155 l-14 45 369 0 368 0 -9 105
c-33 407 -333 615 -695 483z m342 -256 c126 -126 102 -152 -142 -152 -224 0
-230 3 -180 100 71 138 213 161 322 52z"/>
<path d="M4682 1854 c-127 -40 -277 -261 -230 -338 22 -34 248 -18 262 19 44
124 236 175 326 85 88 -88 33 -148 -165 -180 -350 -56 -455 -137 -455 -354 0
-267 295 -401 565 -258 88 47 92 47 101 10 9 -33 29 -38 142 -38 l132 0 -1
385 c-1 495 -26 573 -209 657 -91 42 -353 49 -468 12z m389 -683 c-36 -196
-371 -269 -371 -82 0 90 63 139 219 169 66 13 127 35 135 48 22 33 33 -54 17
-135z"/>
<path d="M1139 1845 c-19 -243 9 -822 42 -886 108 -212 438 -246 593 -62 l45
53 0 -75 1 -75 130 0 130 0 0 240 0 240 -140 0 c-137 0 -140 -1 -140 -51 0
-127 -85 -209 -217 -209 -149 0 -163 42 -163 473 l0 367 -140 0 c-77 0 -141
-7 -141 -15z"/>
<path d="M5645 880 c-228 -139 -5 -434 234 -311 128 67 110 264 -30 323 -90
37 -127 35 -204 -12z"/>
<path d="M940 640 c0 -32 13 -40 70 -40 l70 0 0 -200 c0 -200 0 -200 50 -200
50 0 50 0 50 200 l0 200 70 0 c57 0 70 8 70 40 0 37 -13 40 -190 40 -177 0
-190 -3 -190 -40z"/>
<path d="M2100 440 l0 -240 50 0 c48 0 50 5 50 129 0 110 6 130 39 141 83 26
121 -21 121 -151 0 -111 3 -119 46 -119 44 0 46 5 38 135 -10 168 -39 205
-157 205 -86 0 -87 1 -87 70 0 61 -6 70 -50 70 l-50 0 0 -240z"/>
<path d="M3240 440 l0 -240 48 0 c48 0 48 0 50 240 l1 240 -49 0 -50 0 0 -240z"/>
<path d="M4394 547 c-8 -7 -14 -66 -14 -130 0 -131 -42 -179 -120 -137 -33 18
-40 42 -40 141 0 114 -2 119 -50 119 -44 0 -50 -8 -50 -75 0 -189 55 -265 190
-265 50 0 71 -8 65 -25 -10 -31 -135 -46 -135 -16 0 26 -41 27 -80 0 -48 -32
47 -99 140 -99 143 0 170 45 170 283 0 202 -21 259 -76 204z"/>
<path d="M1380 500 c-55 -55 -55 -205 0 -260 52 -52 221 -56 270 -7 50 49 8
76 -75 49 -77 -26 -135 -12 -135 30 0 21 31 28 120 28 l120 0 0 67 c0 128
-202 191 -300 93z m196 -44 c41 -41 27 -56 -56 -56 -56 0 -80 9 -80 28 0 50
95 69 136 28z"/>
<path d="M1771 513 c-58 -42 -66 -211 -12 -268 85 -90 301 -46 301 62 0 41
-71 44 -87 3 -7 -19 -38 -30 -82 -30 -89 0 -113 164 -28 187 47 12 117 -16
117 -48 0 -10 18 -19 40 -19 51 0 53 62 3 107 -44 40 -200 44 -252 6z"/>
<path d="M2548 525 c-85 -57 -100 -325 -18 -325 48 0 50 5 50 128 0 114 5 129
43 139 86 22 117 -18 117 -148 0 -112 3 -119 48 -119 57 0 54 239 -4 305 -31
36 -191 50 -236 20z"/>
<path d="M2928 525 c-141 -95 -63 -325 110 -325 125 0 162 39 162 173 0 143
-156 229 -272 152z m153 -66 c99 -52 24 -212 -85 -184 -51 14 -52 178 -1 191
19 5 38 10 41 12 4 1 24 -7 45 -19z"/>
<path d="M3408 498 c-106 -117 -25 -298 134 -298 112 0 178 62 178 170 0 153
-211 239 -312 128z m195 -38 c11 0 17 -38 13 -85 -9 -131 -143 -133 -152 -2
-6 85 23 115 93 95 14 -5 35 -8 46 -8z"/>
<path d="M3788 498 c-105 -116 -22 -298 136 -298 54 0 77 -8 71 -25 -10 -31
-135 -46 -135 -16 0 26 -41 27 -80 0 -48 -32 47 -99 140 -99 165 0 257 278
140 425 -57 72 -211 80 -272 13z m194 -38 c10 0 18 -39 18 -88 0 -95 -48 -131
-123 -90 -81 43 -26 218 60 187 14 -5 35 -9 45 -9z"/>
</g>
</svg>
